<svg xmlns="http://www.w3.org/2000/svg" xmlns:xlink="http://www.w3.org/1999/xlink" width="500" zoomAndPan="magnify" viewBox="0 0 375 374.999991" height="500" preserveAspectRatio="xMidYMid meet" version="1.0"><defs><g/><clipPath id="1b72a5b499"><path d="M 37.5 159.65625 L 86.320312 159.65625 L 86.320312 208.472656 L 37.5 208.472656 Z M 37.5 159.65625 " clip-rule="nonzero"/></clipPath><clipPath id="49cc17003e"><path d="M 61.910156 159.65625 C 48.429688 159.65625 37.5 170.582031 37.5 184.0625 C 37.5 197.542969 48.429688 208.472656 61.910156 208.472656 C 75.390625 208.472656 86.320312 197.542969 86.320312 184.0625 C 86.320312 170.582031 75.390625 159.65625 61.910156 159.65625 Z M 61.910156 159.65625 " clip-rule="nonzero"/></clipPath><clipPath id="f5d1521db0"><path d="M 87.515625 159.65625 L 143.199219 159.65625 L 143.199219 208.472656 L 87.515625 208.472656 Z M 87.515625 159.65625 " clip-rule="nonzero"/></clipPath><clipPath id="6eca354fa4"><path d="M 87.515625 159.65625 L 118.75 159.65625 L 143.15625 184.0625 L 118.75 208.472656 L 87.515625 208.472656 L 111.925781 184.0625 Z M 87.515625 159.65625 " clip-rule="nonzero"/></clipPath></defs><rect x="-37.5" width="450" fill="#ffffff" y="-37.499999" height="449.999989" fill-opacity="1"/><rect x="-37.5" width="450" fill="#ffffff" y="-37.499999" height="449.999989" fill-opacity="1"/><g clip-path="url(#1b72a5b499)"><g clip-path="url(#49cc17003e)"><path fill="#68a9f8" d="M 37.5 159.65625 L 86.320312 159.65625 L 86.320312 208.472656 L 37.5 208.472656 Z M 37.5 159.65625 " fill-opacity="1" fill-rule="nonzero"/></g></g><g clip-path="url(#f5d1521db0)"><g clip-path="url(#6eca354fa4)"><path fill="#68a9f8" d="M 87.515625 159.65625 L 143.199219 159.65625 L 143.199219 208.472656 L 87.515625 208.472656 Z M 87.515625 159.65625 " fill-opacity="1" fill-rule="nonzero"/></g></g><g fill="#68a9f8" fill-opacity="1"><g transform="translate(145.761485, 207.869737)"><g><path d="M 26.3125 0 L 26.3125 -38.703125 L 39.953125 -38.703125 L 39.953125 -48.8125 L 1.328125 -48.8125 L 1.328125 -38.703125 L 15 -38.703125 L 15 0 Z M 26.3125 0 "/></g></g></g><g fill="#68a9f8" fill-opacity="1"><g transform="translate(187.040035, 207.869737)"><g><path d="M 50.90625 0 L 30.875 -48.859375 L 20.203125 -48.859375 L 0.171875 0 L 12.203125 0 L 15.359375 -7.9375 L 35.71875 -7.9375 L 38.875 0 Z M 25.15625 -32.625 L 25.484375 -34.140625 L 25.59375 -34.140625 L 25.921875 -32.625 L 31.984375 -17.375 L 19.09375 -17.375 Z M 25.15625 -32.625 "/></g></g></g><g fill="#68a9f8" fill-opacity="1"><g transform="translate(238.11776, 207.869737)"><g><path d="M 36.859375 0 L 36.859375 -10.125 L 16.375 -10.125 L 16.375 -48.8125 L 4.984375 -48.8125 L 4.984375 0 Z M 36.859375 0 "/></g></g></g><g fill="#68a9f8" fill-opacity="1"><g transform="translate(276.417081, 207.869737)"><g><path d="M 54.953125 -24.484375 C 54.953125 -38.703125 43.046875 -50.046875 28.4375 -50.046875 C 13.75 -50.046875 1.859375 -38.703125 1.859375 -24.484375 C 1.859375 -10.296875 13.75 1.109375 28.4375 1.109375 C 31.015625 1.109375 33.53125 0.75 35.890625 0.078125 L 42.359375 11.375 L 52.984375 5.390625 L 45.703125 -5.0625 C 51.375 -9.734375 54.953125 -16.6875 54.953125 -24.484375 Z M 13.25 -24.453125 C 13.25 -33.28125 19.953125 -39.625 28.4375 -39.625 C 36.859375 -39.625 43.609375 -33.28125 43.609375 -24.453125 C 43.609375 -15.65625 36.859375 -9.296875 28.4375 -9.296875 C 20.03125 -9.296875 13.25 -15.65625 13.25 -24.453125 Z M 13.25 -24.453125 "/></g></g></g></svg>